<svg xmlns="http://www.w3.org/2000/svg" xmlns:xlink="http://www.w3.org/1999/xlink" viewBox="0 0 280 250" preserveAspectRatio="xMidYMid" style="display: block; shape-rendering: auto; background: rgb(255, 255, 255);" width="280" height="250"><style type="text/css">
  .ld-text text {
    text-anchor: middle;
    dominant-baseline: middle;
    font-size: 59px;
    opacity: 0;
    user-select: none;
    pointer-events: none;
  }
</style>
<g style="transform-origin:140px 125px;transform:scale(1)" class="ld-text">
<g transform="translate(140,125)">
  <g transform="scale(0.7375) translate(0,0)"><g class="path" style="opacity: 1; transform-origin: -133.92px -0.26px; transform: matrix3d(0.91, 0, 0, 0, 0, 0.91, 0, 0, 0, 0, 0.91, 0, 0, 0, 0, 1); animation: 1s linear -0.605s infinite normal forwards running animate-mri873pnn7j; transform-box: view-box;"><path d="M24 13.16Q22.32 11.48 22.32 9.08Q22.32 6.68 24 4.96Q25.68 3.24 28.08 3.24L28.08 3.24Q28.80 3.24 29.92 3.56L29.92 3.56Q28.40 0.76 24.24 0.76Q20.08 0.76 16.88 6.04Q13.68 11.32 13.68 21.72L13.68 21.72Q13.68 25.32 15.32 27.04Q16.96 28.76 19.44 28.76Q21.92 28.76 23.96 27.80Q26 26.84 27.20 25.52Q28.40 24.20 29.28 22.76L29.28 22.76Q30.88 20.12 30.88 19.40L30.88 19.40L32.32 20.04Q32.08 21.32 30.88 23.44Q29.68 25.56 28.24 26.92Q26.80 28.28 24 29.44Q21.20 30.60 17.76 30.60L17.76 30.60Q11.28 30.60 7.96 27.52Q4.64 24.44 4.64 19.08L4.64 19.08Q4.64 9.56 9.40 4.16Q14.16-1.24 22.32-1.24L22.32-1.24Q27.84-1.24 30.80 1.56Q33.76 4.36 33.76 8.92L33.76 8.92Q33.76 11.80 32.04 13.32Q30.32 14.84 28 14.84Q25.68 14.84 24 13.16" style="fill: rgb(0, 91, 226);" transform="translate(-153.120,-14.940)"></path></g><g class="path" style="opacity: 1; transform-origin: -100.96px -0.62px; transform: matrix3d(0.91, 0, 0, 0, 0, 0.91, 0, 0, 0, 0, 0.91, 0, 0, 0, 0, 1); animation: 1s linear -0.55s infinite normal forwards running animate-mri873pnn7j; transform-box: view-box;"><path d="M38.80 2.60L37.60 1.64Q40-1.24 43.64-1.24Q47.28-1.24 49.28 0.60Q51.28 2.44 51.28 5.80L51.28 5.80L51.28 6.28Q54.88-1.24 60.64-1.24L60.64-1.24Q66.80-1.24 66.80 5.16L66.80 5.16Q66.80 7.80 65.04 10.76Q63.28 13.72 61.52 16.40Q59.76 19.08 59.76 21.16L59.76 21.16L57.84 21.16Q57.84 18.20 61.28 13.16Q64.72 8.12 64.72 5.36Q64.72 2.60 63.64 1.60Q62.56 0.60 60.44 0.60Q58.32 0.60 56.28 2.44Q54.24 4.28 52.88 7.08L52.88 7.08Q50.72 11.24 50 13.88L50 13.88L50 13.96L47.12 29.88L37.52 29.88L42.80 0.36Q40.40 0.60 38.80 2.60L38.80 2.60" style="fill: rgb(0, 0, 0);" transform="translate(-153.120,-14.940)"></path></g><g class="path" style="opacity: 1; transform-origin: -70.88px -0.26px; transform: matrix3d(0.91, 0, 0, 0, 0, 0.91, 0, 0, 0, 0, 0.91, 0, 0, 0, 0, 1); animation: 1s linear -0.495s infinite normal forwards running animate-mri873pnn7j; transform-box: view-box;"><path d="M85.76-1.24L85.76-1.24Q95.92-1.24 95.92 6.84L95.92 6.84Q95.92 11.88 91.16 14.48Q86.40 17.08 77.60 17.16L77.60 17.16Q77.44 20.04 77.44 21.72L77.44 21.72Q77.44 25.32 79.08 27.04Q80.72 28.76 83.20 28.76Q85.68 28.76 87.72 27.80Q89.76 26.84 90.96 25.52Q92.16 24.20 93.04 22.76L93.04 22.76Q94.64 20.12 94.64 19.40L94.64 19.40L96.08 20.04Q95.84 21.32 94.64 23.44Q93.44 25.56 92 26.92Q90.56 28.28 87.76 29.44Q84.96 30.60 81.52 30.60L81.52 30.60Q75.04 30.60 71.72 27.52Q68.40 24.44 68.40 19.08L68.40 19.08Q68.40 9.56 73.12 4.16Q77.84-1.24 85.76-1.24 zM93.92 6.84Q93.92 4.20 92.36 2.48Q90.80 0.76 87.72 0.76Q84.64 0.76 81.72 4.44Q78.80 8.12 77.84 15.32L77.84 15.32Q93.92 15.24 93.92 6.84L93.92 6.84" style="fill: rgb(0, 91, 226);" transform="translate(-153.120,-14.940)"></path></g><g class="path" style="opacity: 1; transform-origin: -35.6px -0.26px; transform: matrix3d(0.91, 0, 0, 0, 0, 0.91, 0, 0, 0, 0, 0.91, 0, 0, 0, 0, 1); animation: 1s linear -0.44s infinite normal forwards running animate-mri873pnn7j; transform-box: view-box;"><path d="M128.48 30.60L128.48 30.60Q121.44 30.60 120.80 24.44L120.80 24.44Q117.28 30.60 111.92 30.60Q106.56 30.60 103.40 27.36Q100.24 24.12 100.24 18.28L100.24 18.28Q100.24 9.16 104.72 3.96Q109.20-1.24 116.32-1.24L116.32-1.24Q122.16-1.24 124.08 4.28L124.08 4.28Q124.48 1.88 124.96-0.52L124.96-0.52Q130.88-0.52 133.76-1L133.76-1L134.80-1.24L129.28 29Q131.68 28.76 133.28 26.76L133.28 26.76L134.48 27.72Q132.08 30.60 128.48 30.60 zM109.28 22.36Q109.28 25.96 110.20 27.36Q111.12 28.76 113.04 28.76Q114.96 28.76 116.96 26.68L116.96 26.68Q119.60 23.96 121.20 19.80L121.20 19.80Q121.44 18.76 122.12 14.80Q122.80 10.84 123.28 8.28L123.28 8.28Q123.04 5.24 121.60 3Q120.16 0.76 118 0.76L118 0.76Q114.08 0.76 111.68 7.76Q109.28 14.76 109.28 22.36L109.28 22.36" style="fill: rgb(0, 0, 0);" transform="translate(-153.120,-14.940)"></path></g><g class="path" style="opacity: 1; transform-origin: -1.6px -6.18px; transform: matrix3d(0.91, 0, 0, 0, 0, 0.91, 0, 0, 0, 0, 0.91, 0, 0, 0, 0, 1); animation: 1s linear -0.385s infinite normal forwards running animate-mri873pnn7j; transform-box: view-box;"><path d="M139.84-0.52L143.92-0.52L146.08-12.36Q152-12.36 154.88-12.84L154.88-12.84L155.92-13.08Q154.80-7.48 153.44-0.52L153.44-0.52L163.36-0.52L163.20 0.92L153.20 0.92Q149.20 21.56 149.20 25.80L149.20 25.80Q149.20 28.36 151.92 28.36Q154.64 28.36 156.88 24.92Q159.12 21.48 160.08 17.48L160.08 17.48L161.52 17.96Q158.56 30.60 149.28 30.60L149.28 30.60Q145.44 30.60 142.88 28.48Q140.32 26.36 140.32 22.56Q140.32 18.76 143.60 0.92L143.60 0.92L139.68 0.92L139.84-0.52" style="fill: rgb(0, 91, 226);" transform="translate(-153.120,-14.940)"></path></g><g class="path" style="opacity: 1; transform-origin: 19.72px -0.26px; transform: matrix3d(0.91, 0, 0, 0, 0, 0.91, 0, 0, 0, 0, 0.91, 0, 0, 0, 0, 1); animation: 1s linear -0.33s infinite normal forwards running animate-mri873pnn7j; transform-box: view-box;"><path d="M179.52 27.72Q177.12 30.60 173.52 30.60Q169.92 30.60 167.88 28.76Q165.84 26.92 165.84 23.96L165.84 23.96Q165.84 22.92 167.12 15.24L167.12 15.24L169.76 0.92L166.40 0.92L166.56-0.52L170-0.52Q175.92-0.52 178.72-1L178.72-1L179.84-1.24L174.32 29Q176.72 28.76 178.32 26.76L178.32 26.76L179.52 27.72" style="fill: rgb(0, 0, 0);" transform="translate(-153.120,-14.940)"></path></g><g class="path" style="opacity: 1; transform-origin: 23.48px -27.98px; transform: matrix3d(0.91, 0, 0, 0, 0, 0.91, 0, 0, 0, 0, 0.91, 0, 0, 0, 0, 1); animation: 1s linear -0.275s infinite normal forwards running animate-mri873pnn7j; transform-box: view-box;"><path d="M172.48-8.92Q170.80-10.60 170.80-13Q170.80-15.40 172.48-17.12Q174.16-18.84 176.56-18.84Q178.96-18.84 180.68-17.12Q182.40-15.40 182.40-13Q182.40-10.60 180.68-8.92Q178.96-7.24 176.56-7.24Q174.16-7.24 172.48-8.92" style="fill: rgb(0, 91, 226);" transform="translate(-153.120,-14.940)"></path></g><g class="path" style="opacity: 1; transform-origin: 49.16px -0.26px; transform: matrix3d(0.91, 0, 0, 0, 0, 0.91, 0, 0, 0, 0, 0.91, 0, 0, 0, 0, 1); animation: 1s linear -0.22s infinite normal forwards running animate-mri873pnn7j; transform-box: view-box;"><path d="M215.04 29L215.04 29Q216.96 29 219.04 26.76L219.04 26.76L220.24 27.72Q219.68 28.84 217.76 29.72Q215.84 30.60 213.52 30.60L213.52 30.60Q206.24 30.60 206.24 24.04L206.24 24.04Q206.24 21.24 207.68 14.04Q209.12 6.84 209.12 4.60L209.12 4.60Q209.12 1.16 205.84 1.16L205.84 1.16Q203.20 1.16 200.76 4.60Q198.32 8.04 196.72 14.04L196.72 14.04L194 29Q196.48 28.76 198.08 26.76L198.08 26.76L199.28 27.72Q196.88 30.60 193.28 30.60Q189.68 30.60 187.64 28.76Q185.60 26.92 185.60 23.96L185.60 23.96Q185.60 22.84 186.88 15.16L186.88 15.16L189.52 0.36Q187.12 0.60 185.52 2.60L185.52 2.60L184.32 1.64Q186.72-1.24 190.36-1.24Q194-1.24 196 0.60Q198 2.44 198 5.80L198 5.80L198 6.28Q201.28-1.24 208.24-1.24L208.24-1.24Q212.96-1.24 215.60 1.44Q218.24 4.12 218.24 8.84L218.24 8.84Q218.24 11.32 216.72 18.40Q215.20 25.48 215.04 29" style="fill: rgb(0, 0, 0);" transform="translate(-153.120,-14.940)"></path></g><g class="path" style="opacity: 1; transform-origin: 87.04px 6.74px; transform: matrix3d(0.91, 0, 0, 0, 0, 0.91, 0, 0, 0, 0, 0.91, 0, 0, 0, 0, 1); animation: 1s linear -0.165s infinite normal forwards running animate-mri873pnn7j; transform-box: view-box;"><path d="M250.32 38.60L250.32 38.60Q253.20 38.60 255.28 36.36L255.28 36.36L256.40 37.32Q254.48 40.04 250.32 40.04L250.32 40.04Q248.56 40.04 246.72 39.64L246.72 39.64Q241.28 44.60 232.80 44.60L232.80 44.60Q227.76 44.60 225 42.88Q222.24 41.16 222.24 38.40Q222.24 35.64 223.96 34Q225.68 32.36 230.08 32.36Q234.48 32.36 241.68 35.96L241.68 35.96L244.16 22.68Q240.56 29.32 234.88 29.32L234.88 29.32Q224 29.32 224 18.60L224 18.60Q224 9.64 228.52 4.20Q233.04-1.24 240.08-1.24L240.08-1.24Q244.16-1.24 246.40 1.24L246.40 1.24Q247.04 1.96 247.68 3.40L247.68 3.40L248.40-0.52Q254.32-0.52 257.04-1L257.04-1L258.08-1.24L252.80 28.28Q251.60 34.52 248 38.36L248 38.36Q249.04 38.60 250.32 38.60 zM233.04 21.08Q233.04 24.76 233.76 26Q234.48 27.24 236.48 27.24Q238.48 27.24 240.56 25.08Q242.64 22.92 243.56 21.04Q244.48 19.16 245.12 17.40L245.12 17.40L246.80 8.20L246.80 7.64Q246.80 0.28 240.08 0.28L240.08 0.28Q237.52 0.28 235.28 7.24Q233.04 14.20 233.04 21.08L233.04 21.08 zM232.48 43L232.48 43Q238.88 43 241.12 37.48L241.12 37.48L240 36.92Q239.04 36.44 238.84 36.32Q238.64 36.20 237.76 35.80Q236.88 35.40 236.48 35.28Q236.08 35.16 235.24 34.84Q234.40 34.52 233.84 34.40Q233.28 34.28 232.56 34.12L232.56 34.12Q231.36 33.88 229.04 33.88Q226.72 33.88 225.32 35Q223.92 36.12 223.92 38.28Q223.92 40.44 226.24 41.72Q228.56 43 232.48 43" style="fill: rgb(0, 91, 226);" transform="translate(-153.120,-14.940)"></path></g><g class="path" style="opacity: 1; transform-origin: 114.04px 9.78px; transform: matrix3d(0.91, 0, 0, 0, 0, 0.91, 0, 0, 0, 0, 0.91, 0, 0, 0, 0, 1); animation: 1s linear -0.11s infinite normal forwards running animate-mri873pnn7j; transform-box: view-box;"><path d="M263.04 28.84Q261.36 27.16 261.36 24.76Q261.36 22.36 263.04 20.64Q264.72 18.92 267.12 18.92Q269.52 18.92 271.24 20.64Q272.96 22.36 272.96 24.76Q272.96 27.16 271.24 28.84Q269.52 30.52 267.12 30.52Q264.72 30.52 263.04 28.84" style="fill: rgb(0, 0, 0);" transform="translate(-153.120,-14.940)"></path></g><g class="path" style="opacity: 1; transform-origin: 133px 9.78px; transform: matrix3d(0.91, 0, 0, 0, 0, 0.91, 0, 0, 0, 0, 0.91, 0, 0, 0, 0, 1); animation: 1s linear -0.055s infinite normal forwards running animate-mri873pnn7j; transform-box: view-box;"><path d="M282 28.84Q280.32 27.16 280.32 24.76Q280.32 22.36 282 20.64Q283.68 18.92 286.08 18.92Q288.48 18.92 290.20 20.64Q291.92 22.36 291.92 24.76Q291.92 27.16 290.20 28.84Q288.48 30.52 286.08 30.52Q283.68 30.52 282 28.84" style="fill: rgb(0, 91, 226);" transform="translate(-153.120,-14.940)"></path></g><g class="path" style="opacity: 1; transform-origin: 151.96px 9.78px; transform: matrix3d(0.91, 0, 0, 0, 0, 0.91, 0, 0, 0, 0, 0.91, 0, 0, 0, 0, 1); animation: 1s linear 0s infinite normal forwards running animate-mri873pnn7j; transform-box: view-box;"><path d="M300.96 28.84Q299.28 27.16 299.28 24.76Q299.28 22.36 300.96 20.64Q302.64 18.92 305.04 18.92Q307.44 18.92 309.16 20.64Q310.88 22.36 310.88 24.76Q310.88 27.16 309.16 28.84Q307.44 30.52 305.04 30.52Q302.64 30.52 300.96 28.84" style="fill: rgb(0, 0, 0);" transform="translate(-153.120,-14.940)"></path></g></g><text dy="0.35em" fill="#005be2" font-family="Sail" font-size="59">creating...</text>
</g>
</g><style type="text/css">@keyframes animate-mri873pnn7j { 0.00% {transform: translate(0.00px,0.00px) rotate(0.00deg) scale(0.91, 0.91) skew(0deg, 0.00deg) ;opacity: 1.00;}4.00% {transform: translate(0.00px,0.00px) rotate(0.00deg) scale(0.91, 0.91) ;}8.00% {animation-timing-function: cubic-bezier(0.69,0.60,0.35,0.27);transform: translate(0.00px,0.00px) rotate(0.00deg) scale(0.91, 0.91) ;}14.00% {transform: translate(0.00px,0.00px) rotate(0.00deg) scale(0.93, 0.93) ;}18.00% {transform: translate(0.00px,0.00px) rotate(0.00deg) scale(0.94, 0.94) ;}22.00% {animation-timing-function: cubic-bezier(0.67,0.66,0.34,0.33);transform: translate(0.00px,0.00px) rotate(0.00deg) scale(0.96, 0.96) ;}26.00% {transform: translate(0.00px,0.00px) rotate(0.00deg) scale(0.97, 0.97) ;}30.00% {transform: translate(0.00px,0.00px) rotate(0.00deg) scale(0.99, 0.99) ;}34.00% {animation-timing-function: cubic-bezier(0.65,0.71,0.32,0.38);transform: translate(0.00px,0.00px) rotate(0.00deg) scale(1.01, 1.01) ;}40.00% {animation-timing-function: cubic-bezier(0.64,0.74,0.31,0.41);transform: translate(0.00px,0.00px) rotate(0.00deg) scale(1.02, 1.02) ;}46.00% {animation-timing-function: cubic-bezier(0.60,0.91,0.23,0.63);transform: translate(0.00px,0.00px) rotate(0.00deg) scale(1.03, 1.03) ;}50.00% {transform: translate(0.00px,0.00px) rotate(0.00deg) scale(1.03, 1.03) ;}54.00% {transform: translate(0.00px,0.00px) rotate(0.00deg) scale(1.03, 1.03) ;}58.00% {animation-timing-function: cubic-bezier(0.69,0.60,0.35,0.27);transform: translate(0.00px,0.00px) rotate(0.00deg) scale(1.03, 1.03) ;}64.00% {transform: translate(0.00px,0.00px) rotate(0.00deg) scale(1.01, 1.01) ;}68.00% {transform: translate(0.00px,0.00px) rotate(0.00deg) scale(1.00, 1.00) ;}72.00% {animation-timing-function: cubic-bezier(0.67,0.66,0.34,0.33);transform: translate(0.00px,0.00px) rotate(0.00deg) scale(0.98, 0.98) ;}76.00% {animation-timing-function: cubic-bezier(0.66,0.68,0.33,0.35);transform: translate(0.00px,0.00px) rotate(0.00deg) scale(0.97, 0.97) ;}82.00% {animation-timing-function: cubic-bezier(0.65,0.71,0.32,0.38);transform: translate(0.00px,0.00px) rotate(0.00deg) scale(0.94, 0.94) ;}88.00% {animation-timing-function: cubic-bezier(0.65,0.73,0.31,0.40);transform: translate(0.00px,0.00px) rotate(0.00deg) scale(0.92, 0.92) ;}94.00% {animation-timing-function: cubic-bezier(0.63,0.80,0.28,0.48);transform: translate(0.00px,0.00px) rotate(0.00deg) scale(0.91, 0.91) ;}100.00% {animation-timing-function: cubic-bezier(0.63,0.80,0.28,0.48);transform: translate(0.00px,0.00px) rotate(0.00deg) scale(0.91, 0.91) ;} }</style><!-- [ldio] generated by https://loading.io --></svg>