<svg xmlns="http://www.w3.org/2000/svg" xmlns:xlink="http://www.w3.org/1999/xlink" viewBox="0 0 280 61" preserveAspectRatio="xMidYMid" style="display: block; shape-rendering: auto; background: rgb(255, 255, 255);" width="280" height="61"><style type="text/css">
  .ld-text text {
    text-anchor: middle;
    dominant-baseline: middle;
    font-size: 61px;
    opacity: 0;
    user-select: none;
    pointer-events: none;
  }
</style>
<g style="transform-origin:140px 30.5px;transform:scale(1)" class="ld-text">
<g transform="translate(140,30.5)">
  <g transform="scale(0.7625) translate(0,0)"><g class="path" style="opacity: 1; transform-origin: -145.36px -9.04px; transform: matrix3d(0.91, 0, 0, 0, 0, 0.91, 0, 0, 0, 0, 0.91, 0, 0, 0, 0, 1); animation: 1s linear -0.609231s infinite normal forwards running animate-wy6wyl14zde; transform-box: view-box;"><path d="M23.44 37.99L23.44 37.99Q14.56 37.99 8.48 30.55Q2.40 23.11 2.40 12.31L2.40 12.31Q2.40-0.89 9.72-9.93Q17.04-18.97 27.68-18.97L27.68-18.97Q31.84-18.97 35.40-18.13Q38.96-17.29 40.48-16.41L40.48-16.41L41.92-15.53L36.48-4.41Q34.64-6.01 31.28-7.41Q27.92-8.81 25.20-8.81L25.20-8.81Q19.68-8.81 16.36-4.25Q13.04 0.31 13.04 8.75Q13.04 17.19 16.48 22.59Q19.92 27.99 25.84 27.99L25.84 27.99Q29.68 27.99 32.80 25.59Q35.92 23.19 37.20 19.19L37.20 19.19L43.84 23.03Q41.20 30.07 35.76 34.03Q30.32 37.99 23.44 37.99" style="fill: rgb(0, 91, 226);" transform="translate(-168.480,-18.554)"></path></g><g class="path" style="opacity: 1; transform-origin: -108.48px -1.8px; transform: matrix3d(0.91, 0, 0, 0, 0, 0.91, 0, 0, 0, 0, 0.91, 0, 0, 0, 0, 1); animation: 1s linear -0.558462s infinite normal forwards running animate-wy6wyl14zde; transform-box: view-box;"><path d="M47.84-1.53L47.84-1.53L57.52-3.61Q58.24 2.55 58.48 8.07L58.48 8.07Q65.76-3.21 72.16-3.21L72.16-3.21L71.28 9.27Q66.64 9.27 63.96 10.11Q61.28 10.95 58.48 13.43L58.48 13.43L58.48 16.31L59.36 35.11L48.64 37.11L49.60 17.67Q49.28 6.95 47.84-1.53" style="fill: rgb(0, 0, 0);" transform="translate(-168.480,-18.554)"></path></g><g class="path" style="opacity: 1; transform-origin: -78.2px -1.6px; transform: matrix3d(0.91, 0, 0, 0, 0, 0.91, 0, 0, 0, 0, 0.91, 0, 0, 0, 0, 1); animation: 1s linear -0.507692s infinite normal forwards running animate-wy6wyl14zde; transform-box: view-box;"><path d="M91.60 28.95L91.60 28.95Q93.92 28.95 96.48 27.75Q99.04 26.55 100.48 25.35L100.48 25.35L101.92 24.15L105.60 28.63Q104.80 29.99 103.12 31.75Q101.44 33.51 99.72 34.75Q98 35.99 95.16 36.99Q92.32 37.99 89.28 37.99L89.28 37.99Q82.80 37.99 78.72 33.07Q74.64 28.15 74.64 20.39L74.64 20.39Q74.64 10.63 80.32 3.27Q86-4.09 93.60-4.09L93.60-4.09Q99.44-4.09 102.68-0.81Q105.92 2.47 105.92 8.39L105.92 8.39Q105.92 11.91 104.72 16.39L104.72 16.39L103.12 18.07L83.12 19.91Q84.48 28.95 91.60 28.95 zM91.60 4.15L91.60 4.15Q88.08 4.15 85.68 6.99Q83.28 9.83 82.88 14.23L82.88 14.23L96.48 12.55Q96.72 10.71 96.72 9.51L96.72 9.51Q96.72 4.15 91.60 4.15" style="fill: rgb(0, 91, 226);" transform="translate(-168.480,-18.554)"></path></g><g class="path" style="opacity: 1; transform-origin: -41.68px -1.92px; transform: matrix3d(0.91, 0, 0, 0, 0, 0.91, 0, 0, 0, 0, 0.91, 0, 0, 0, 0, 1); animation: 1s linear -0.456923s infinite normal forwards running animate-wy6wyl14zde; transform-box: view-box;"><path d="M120.88 37.11Q116.16 37.11 113.16 34.11Q110.16 31.11 110.16 26.03Q110.16 20.95 114.80 17.23Q119.44 13.51 126.08 13.51L126.08 13.51L131.52 13.51L131.52 12.15Q131.52 8.23 129.92 6.79Q128.32 5.35 123.92 5.35L123.92 5.35Q122.08 5.35 119.56 6.11Q117.04 6.87 113.92 8.47L113.92 8.47L111.60 2.15Q115.04-0.25 119.96-2.17Q124.88-4.09 128.08-4.09L128.08-4.09Q140.64-4.09 140.64 8.07L140.64 8.07L140.64 23.75Q140.64 28.23 143.44 33.75L143.44 33.75L134.96 37.35Q132.96 33.51 132 30.47L132 30.47Q127.60 37.11 120.88 37.11L120.88 37.11 zM124.24 28.95L124.24 28.95Q127.44 28.95 131.52 25.67L131.52 25.67L131.52 20.31Q127.28 19.35 124.64 19.35L124.64 19.35Q119.60 19.35 119.60 23.83L119.60 23.83Q119.60 26.15 120.88 27.55Q122.16 28.95 124.24 28.95" style="fill: rgb(0, 0, 0);" transform="translate(-168.480,-18.554)"></path></g><g class="path" style="opacity: 1; transform-origin: -8px -6.2px; transform: matrix3d(0.91, 0, 0, 0, 0, 0.91, 0, 0, 0, 0, 0.91, 0, 0, 0, 0, 1); animation: 1s linear -0.406154s infinite normal forwards running animate-wy6wyl14zde; transform-box: view-box;"><path d="M148.88-1.61L153.52-1.61L153.52-10.33L164.32-12.41L163.28-1.61L172.96-1.61L172.08 4.95L162.96 4.95L162.56 21.67Q162.56 25.43 163.28 26.67Q164 27.91 165.92 27.91Q167.84 27.91 171.04 27.03L171.04 27.03L171.52 32.71Q166.24 37.11 162.24 37.11Q158.24 37.11 155.68 34.19Q153.12 31.27 153.12 26.55L153.12 26.55L153.60 17.59L153.52 4.95L148 4.95L148.88-1.61" style="fill: rgb(0, 91, 226);" transform="translate(-168.480,-18.554)"></path></g><g class="path" style="opacity: 1; transform-origin: 15.64px -1.8px; transform: matrix3d(0.91, 0, 0, 0, 0, 0.91, 0, 0, 0, 0, 0.91, 0, 0, 0, 0, 1); animation: 1s linear -0.355385s infinite normal forwards running animate-wy6wyl14zde; transform-box: view-box;"><path d="M178.80-1.61L189.52-3.61L188.56 16.31L189.44 35.11L178.72 37.11L179.68 17.67L178.80-1.61" style="fill: rgb(0, 0, 0);" transform="translate(-168.480,-18.554)"></path></g><g class="path" style="opacity: 1; transform-origin: 16px -34.24px; transform: matrix3d(0.91, 0, 0, 0, 0, 0.91, 0, 0, 0, 0, 0.91, 0, 0, 0, 0, 1); animation: 1s linear -0.304615s infinite normal forwards running animate-wy6wyl14zde; transform-box: view-box;"><path d="M178.24-15.33Q178.24-18.01 180.32-20.13Q182.40-22.25 185.12-22.25Q187.84-22.25 189.28-20.77Q190.72-19.29 190.72-16.33Q190.72-13.37 188.68-11.25Q186.64-9.13 183.96-9.13Q181.28-9.13 179.76-10.89Q178.24-12.65 178.24-15.33" style="fill: rgb(0, 91, 226);" transform="translate(-168.480,-18.554)"></path></g><g class="path" style="opacity: 1; transform-origin: 45.92px -1.6px; transform: matrix3d(0.91, 0, 0, 0, 0, 0.91, 0, 0, 0, 0, 0.91, 0, 0, 0, 0, 1); animation: 1s linear -0.253846s infinite normal forwards running animate-wy6wyl14zde; transform-box: view-box;"><path d="M221.52 16.87Q221.52 11.35 220.56 9.51Q219.60 7.67 216.08 7.67Q212.56 7.67 208.08 10.47L208.08 10.47L208.08 16.31L208.96 35.11L198.24 37.11L199.20 17.67Q198.88 6.95 197.44-1.53L197.44-1.53L207.12-3.61Q207.68 1.03 207.92 5.43L207.92 5.43Q209.12 3.83 210.64 2.27Q212.16 0.71 215.44-1.25Q218.72-3.21 222.36-3.21Q226-3.21 228.48-0.37Q230.96 2.47 230.96 7.35L230.96 7.35L230.48 16.31L231.36 35.51L220.56 37.51L221.52 16.87" style="fill: rgb(0, 0, 0);" transform="translate(-168.480,-18.554)"></path></g><g class="path" style="opacity: 1; transform-origin: 88.48px 6.76px; transform: matrix3d(0.91, 0, 0, 0, 0, 0.91, 0, 0, 0, 0, 0.91, 0, 0, 0, 0, 1); animation: 1s linear -0.203077s infinite normal forwards running animate-wy6wyl14zde; transform-box: view-box;"><path d="M237.36 45.03L237.36 45.03Q237.36 37.99 250.48 33.99L250.48 33.99Q247.36 32.39 247.36 29.83L247.36 29.83Q247.36 28.79 248.16 27.75Q248.96 26.71 250.48 25.59L250.48 25.59L250.48 24.95Q244.72 24.95 241.32 21.75Q237.92 18.55 237.92 13.19L237.92 13.19Q237.92 6.23 243.60 1.07Q249.28-4.09 257.04-4.09L257.04-4.09Q259.04-4.09 262.88-3.29Q266.72-2.49 270.40-2.49L270.40-2.49L276.56-2.49L275.76 4.47L269.76 3.75Q270.56 6.07 270.56 9.03Q270.56 11.99 269.16 14.91Q267.76 17.83 265.80 19.59Q263.84 21.35 261.88 22.67Q259.92 23.99 258.52 24.99Q257.12 25.99 257.12 26.79L257.12 26.79Q257.12 28.31 260.32 29.43L260.32 29.43Q268.80 32.87 271.80 35.27Q274.80 37.67 274.80 41.19L274.80 41.19Q274.80 47.11 268.84 50.91Q262.88 54.71 254.64 54.71Q246.40 54.71 241.88 52.07Q237.36 49.43 237.36 45.03 zM261.52 11.43L261.52 11.43Q261.52 7.51 259.76 5.67Q258 3.83 254.24 3.83L254.24 3.83Q246.96 3.83 246.96 10.99Q246.96 18.15 254.72 18.15L254.72 18.15Q261.52 18.15 261.52 11.43 zM264.40 42.39L264.40 42.39Q264.40 40.95 262.88 39.71Q261.36 38.47 257.44 36.79L257.44 36.79Q251.60 38.39 249.40 39.75Q247.20 41.11 247.20 43.11Q247.20 45.11 249.40 46.35Q251.60 47.59 255.52 47.59Q259.44 47.59 261.92 46.15Q264.40 44.71 264.40 42.39" style="fill: rgb(0, 91, 226);" transform="translate(-168.480,-18.554)"></path></g><g class="path" style="opacity: 1; transform-origin: 115.88px 12.88px; transform: matrix3d(0.91, 0, 0, 0, 0, 0.91, 0, 0, 0, 0, 0.91, 0, 0, 0, 0, 1); animation: 1s linear -0.152308s infinite normal forwards running animate-wy6wyl14zde; transform-box: view-box;"><path d="M278.56 31.75Q278.56 29.19 280.44 27.23Q282.32 25.27 284.96 25.27L284.96 25.27Q290.16 25.27 290.16 30.55L290.16 30.55Q290.16 33.59 288.28 35.59Q286.40 37.59 283.88 37.59Q281.36 37.59 279.96 35.95Q278.56 34.31 278.56 31.75" style="fill: rgb(0, 0, 0);" transform="translate(-168.480,-18.554)"></path></g><g class="path" style="opacity: 1; transform-origin: 132.28px 12.88px; transform: matrix3d(0.91, 0, 0, 0, 0, 0.91, 0, 0, 0, 0, 0.91, 0, 0, 0, 0, 1); animation: 1s linear -0.101538s infinite normal forwards running animate-wy6wyl14zde; transform-box: view-box;"><path d="M294.96 31.75Q294.96 29.19 296.84 27.23Q298.72 25.27 301.36 25.27L301.36 25.27Q306.56 25.27 306.56 30.55L306.56 30.55Q306.56 33.59 304.68 35.59Q302.80 37.59 300.28 37.59Q297.76 37.59 296.36 35.95Q294.96 34.31 294.96 31.75" style="fill: rgb(0, 91, 226);" transform="translate(-168.480,-18.554)"></path></g><g class="path" style="opacity: 1; transform-origin: 148.68px 12.88px; transform: matrix3d(0.91, 0, 0, 0, 0, 0.91, 0, 0, 0, 0, 0.91, 0, 0, 0, 0, 1); animation: 1s linear -0.0507692s infinite normal forwards running animate-wy6wyl14zde; transform-box: view-box;"><path d="M311.36 31.75Q311.36 29.19 313.24 27.23Q315.12 25.27 317.76 25.27L317.76 25.27Q322.96 25.27 322.96 30.55L322.96 30.55Q322.96 33.59 321.08 35.59Q319.20 37.59 316.68 37.59Q314.16 37.59 312.76 35.95Q311.36 34.31 311.36 31.75" style="fill: rgb(0, 0, 0);" transform="translate(-168.480,-18.554)"></path></g><g class="path" style="opacity: 1; transform-origin: 165.08px 12.88px; transform: matrix3d(0.91, 0, 0, 0, 0, 0.91, 0, 0, 0, 0, 0.91, 0, 0, 0, 0, 1); animation: 1s linear 0s infinite normal forwards running animate-wy6wyl14zde; transform-box: view-box;"><path d="M327.76 31.75Q327.76 29.19 329.64 27.23Q331.52 25.27 334.16 25.27L334.16 25.27Q339.36 25.27 339.36 30.55L339.36 30.55Q339.36 33.59 337.48 35.59Q335.60 37.59 333.08 37.59Q330.56 37.59 329.16 35.95Q327.76 34.31 327.76 31.75" style="fill: rgb(0, 91, 226);" transform="translate(-168.480,-18.554)"></path></g></g><text dy="0.35em" fill="#005be2" font-family="Acme" font-size="61">Creating....</text>
</g>
</g><style type="text/css">@keyframes animate-wy6wyl14zde { 0.00% {transform: translate(0.00px,0.00px) rotate(0.00deg) scale(0.91, 0.91) skew(0deg, 0.00deg) ;opacity: 1.00;}4.00% {transform: translate(0.00px,0.00px) rotate(0.00deg) scale(0.91, 0.91) ;}8.00% {animation-timing-function: cubic-bezier(0.69,0.60,0.35,0.27);transform: translate(0.00px,0.00px) rotate(0.00deg) scale(0.91, 0.91) ;}14.00% {transform: translate(0.00px,0.00px) rotate(0.00deg) scale(0.93, 0.93) ;}18.00% {transform: translate(0.00px,0.00px) rotate(0.00deg) scale(0.94, 0.94) ;}22.00% {animation-timing-function: cubic-bezier(0.67,0.66,0.34,0.33);transform: translate(0.00px,0.00px) rotate(0.00deg) scale(0.96, 0.96) ;}26.00% {transform: translate(0.00px,0.00px) rotate(0.00deg) scale(0.97, 0.97) ;}30.00% {transform: translate(0.00px,0.00px) rotate(0.00deg) scale(0.99, 0.99) ;}34.00% {animation-timing-function: cubic-bezier(0.65,0.71,0.32,0.38);transform: translate(0.00px,0.00px) rotate(0.00deg) scale(1.01, 1.01) ;}40.00% {animation-timing-function: cubic-bezier(0.64,0.74,0.31,0.41);transform: translate(0.00px,0.00px) rotate(0.00deg) scale(1.02, 1.02) ;}46.00% {animation-timing-function: cubic-bezier(0.60,0.91,0.23,0.63);transform: translate(0.00px,0.00px) rotate(0.00deg) scale(1.03, 1.03) ;}50.00% {transform: translate(0.00px,0.00px) rotate(0.00deg) scale(1.03, 1.03) ;}54.00% {transform: translate(0.00px,0.00px) rotate(0.00deg) scale(1.03, 1.03) ;}58.00% {animation-timing-function: cubic-bezier(0.69,0.60,0.35,0.27);transform: translate(0.00px,0.00px) rotate(0.00deg) scale(1.03, 1.03) ;}64.00% {transform: translate(0.00px,0.00px) rotate(0.00deg) scale(1.01, 1.01) ;}68.00% {transform: translate(0.00px,0.00px) rotate(0.00deg) scale(1.00, 1.00) ;}72.00% {animation-timing-function: cubic-bezier(0.67,0.66,0.34,0.33);transform: translate(0.00px,0.00px) rotate(0.00deg) scale(0.98, 0.98) ;}76.00% {animation-timing-function: cubic-bezier(0.66,0.68,0.33,0.35);transform: translate(0.00px,0.00px) rotate(0.00deg) scale(0.97, 0.97) ;}82.00% {animation-timing-function: cubic-bezier(0.65,0.71,0.32,0.38);transform: translate(0.00px,0.00px) rotate(0.00deg) scale(0.94, 0.94) ;}88.00% {animation-timing-function: cubic-bezier(0.65,0.73,0.31,0.40);transform: translate(0.00px,0.00px) rotate(0.00deg) scale(0.92, 0.92) ;}94.00% {animation-timing-function: cubic-bezier(0.63,0.80,0.28,0.48);transform: translate(0.00px,0.00px) rotate(0.00deg) scale(0.91, 0.91) ;}100.00% {animation-timing-function: cubic-bezier(0.63,0.80,0.28,0.48);transform: translate(0.00px,0.00px) rotate(0.00deg) scale(0.91, 0.91) ;} }</style><!-- [ldio] generated by https://loading.io --></svg>